# xmcd
#
# Track frame offsets:
#	150
#	17129
#	31936
#	46640
#	58676
#	79787
#	93087
#	104189
#	116396
#	133590
#	145850
#	162328
#	177526
#	192337
#	204791
#	216417
#	228679
#	244865
#	256413
#
# Disc length: 3637 seconds
#
# Revision: 0
# Processed by: cddbd v1.5.2PL0 Copyright (c) Steve Scherf et al.
# Submitted via: EasyCDDAExtractor 12.0.1.1
#
DISCID=0c0e3313
DTITLE=Barnhill Boys - Hillbilly spacecraft (remaster)
DYEAR=1900
DGENRE=
TTITLE0=Hoodang
TTITLE1=Money crawls
TTITLE2=Greasy Raymond
TTITLE3=The Punisher
TTITLE4=Statue of Liberty
TTITLE5=O me o my
TTITLE6=17 and in misery
TTITLE7=Gin mill round the corner
TTITLE8=A little hippie party
TTITLE9=Fare thee well
TTITLE10=Buffalo's bone
TTITLE11=Time to play a symphony
TTITLE12=Greasy Raymond (Cab Paddock mix)
TTITLE13=The Punisher (Cab Paddock mix)
TTITLE14=17 and in misery (Cab Paddock mix)
TTITLE15=Gin mill round the corner (Cab Paddock mix)
TTITLE16=A little hippie party (Cab Paddock mix)
TTITLE17=Fare thee well (Cab Paddock mix)
TTITLE18=Buffalo's bone (Cab Paddock mix)
EXTD=
EXTT0=
EXTT1=
EXTT2=
EXTT3=
EXTT4=
EXTT5=
EXTT6=
EXTT7=
EXTT8=
EXTT9=
EXTT10=
EXTT11=
EXTT12=
EXTT13=
EXTT14=
EXTT15=
EXTT16=
EXTT17=
EXTT18=
PLAYORDER=
